<svg width="48" height="48" viewBox="0 0 48 48" fill="none" xmlns="http://www.w3.org/2000/svg">
<circle cx="24" cy="24" r="12" fill="url(#paint0_radial_1_4)"/>
<path d="M23.25 46V39C23.25 38.5858 23.5858 38.25 24 38.25C24.4142 38.25 24.75 38.5858 24.75 39V46C24.75 46.4142 24.4142 46.75 24 46.75C23.5858 46.75 23.25 46.4142 23.25 46Z" fill="#E2C704"/>
<path d="M23.25 9V2C23.25 1.58579 23.5858 1.25 24 1.25C24.4142 1.25 24.75 1.58579 24.75 2V9C24.75 9.41421 24.4142 9.75 24 9.75C23.5858 9.75 23.25 9.41421 23.25 9Z" fill="#E2C704"/>
<path d="M46.005 24.755L39.005 24.755C38.5908 24.755 38.255 24.4192 38.255 24.005C38.255 23.5908 38.5908 23.255 39.005 23.255L46.005 23.255C46.4192 23.255 46.755 23.5908 46.755 24.005C46.755 24.4192 46.4192 24.755 46.005 24.755Z" fill="#E2C704"/>
<path d="M9.005 24.755L2.005 24.755C1.59079 24.755 1.255 24.4192 1.255 24.005C1.255 23.5908 1.59079 23.255 2.005 23.255L9.005 23.255C9.41922 23.255 9.755 23.5908 9.755 24.005C9.755 24.4192 9.41922 24.755 9.005 24.755Z" fill="#E2C704"/>
<path d="M8.46966 38.0052L12.0052 34.4697C12.2981 34.1768 12.773 34.1768 13.0659 34.4697C13.3587 34.7626 13.3587 35.2374 13.0659 35.5303L9.53032 39.0659C9.23743 39.3588 8.76255 39.3588 8.46966 39.0659C8.17677 38.773 8.17677 38.2981 8.46966 38.0052Z" fill="#E2C704"/>
<path d="M34.4697 12.0052L38.0052 8.46967C38.2981 8.17678 38.773 8.17678 39.0659 8.46967C39.3587 8.76256 39.3587 9.23744 39.0659 9.53033L35.5303 13.0659C35.2374 13.3588 34.7626 13.3588 34.4697 13.0659C34.1768 12.773 34.1768 12.2981 34.4697 12.0052Z" fill="#E2C704"/>
<path d="M38.0052 39.0659L34.4697 35.5303C34.1768 35.2374 34.1768 34.7626 34.4697 34.4697C34.7626 34.1768 35.2374 34.1768 35.5303 34.4697L39.0659 38.0052C39.3587 38.2981 39.3587 38.773 39.0659 39.0659C38.773 39.3588 38.2981 39.3588 38.0052 39.0659Z" fill="#E2C704"/>
<path d="M12.0052 13.0659L8.46968 9.53033C8.17678 9.23744 8.17678 8.76256 8.46968 8.46967C8.76257 8.17678 9.23744 8.17678 9.53034 8.46967L13.0659 12.0052C13.3588 12.2981 13.3588 12.773 13.0659 13.0659C12.773 13.3588 12.2981 13.3588 12.0052 13.0659Z" fill="#E2C704"/>
<defs>
<radialGradient id="paint0_radial_1_4" cx="0" cy="0" r="1" gradientUnits="userSpaceOnUse" gradientTransform="translate(24 24) rotate(90) scale(17.5)">
<stop stop-color="#E2C703"/>
<stop offset="0.951923" stop-color="#FFE100"/>
</radialGradient>
</defs>
</svg>
