<svg width="48" height="48" viewBox="0 0 48 48" fill="none" xmlns="http://www.w3.org/2000/svg">
<circle cx="22.5" cy="18.5" r="12.5" fill="url(#paint0_linear_1_32)"/>
<path fill-rule="evenodd" clip-rule="evenodd" d="M32.5 14C38.299 14 43 18.0294 43 23C43 27.9706 38.299 32 32.5 32C22.3379 32 23.6525 32 14 32C9.02944 32 5 28.5462 5 24.2857C5 20.0252 9.02944 16.5714 14 16.5714C17.6673 16.5714 20.8203 18.4523 22.2227 21.1493C23.2183 17.0666 27.4411 14 32.5 14Z" fill="url(#paint1_linear_1_32)"/>
<path d="M9.68332 37.8699L12.2333 33.4532C12.5854 32.8433 13.3652 32.6344 13.975 32.9865C14.5848 33.3386 14.7938 34.1183 14.4417 34.7282L11.8917 39.1449C11.5396 39.7547 10.7598 39.9637 10.15 39.6116C9.54018 39.2595 9.33124 38.4797 9.68332 37.8699Z" fill="#679FFF"/>
<path d="M20.7083 37.8699L23.2583 33.4532C23.6104 32.8433 24.3902 32.6344 25 32.9865C25.6098 33.3386 25.8188 34.1183 25.4667 34.7282L22.9167 39.1449C22.5646 39.7547 21.7848 39.9637 21.175 39.6116C20.5652 39.2595 20.3563 38.4797 20.7083 37.8699Z" fill="#679FFF"/>
<path d="M31.3083 37.8699L33.8583 33.4532C34.2104 32.8433 34.9902 32.6344 35.6 32.9865C36.2098 33.3386 36.4188 34.1183 36.0667 34.7282L33.5167 39.1449C33.1646 39.7547 32.3848 39.9637 31.775 39.6116C31.1652 39.2595 30.9562 38.4797 31.3083 37.8699Z" fill="#679FFF"/>
<defs>
<linearGradient id="paint0_linear_1_32" x1="30" y1="10.5" x2="17" y2="26" gradientUnits="userSpaceOnUse">
<stop stop-color="#F2F2F2"/>
<stop offset="0.975962" stop-color="#BFC5CF"/>
</linearGradient>
<linearGradient id="paint1_linear_1_32" x1="24" y1="14" x2="24" y2="32" gradientUnits="userSpaceOnUse">
<stop stop-color="#F2F2F2"/>
<stop offset="1" stop-color="#DBDFE8"/>
</linearGradient>
</defs>
</svg>
