<svg width="48" height="48" viewBox="0 0 48 48" fill="none" xmlns="http://www.w3.org/2000/svg">
<circle cx="22.5" cy="18.5" r="12.5" fill="url(#paint0_linear_1_181)"/>
<path fill-rule="evenodd" clip-rule="evenodd" d="M32.5 14C38.299 14 43 18.0294 43 23C43 27.9706 38.299 32 32.5 32C22.3379 32 23.6525 32 14 32C9.02944 32 5 28.5462 5 24.2857C5 20.0252 9.02944 16.5714 14 16.5714C17.6673 16.5714 20.8203 18.4523 22.2227 21.1493C23.2183 17.0666 27.4411 14 32.5 14Z" fill="url(#paint1_linear_1_181)"/>
<path d="M25 36H6C5.44772 36 5 35.3284 5 34.5C5 33.6716 5.44772 33 6 33H25C25.5523 33 26 33.6716 26 34.5C26 35.3284 25.5523 36 25 36Z" fill="#D7DEE8"/>
<path d="M42 36H29C28.4477 36 28 35.3284 28 34.5C28 33.6716 28.4477 33 29 33H42C42.5523 33 43 33.6716 43 34.5C43 35.3284 42.5523 36 42 36Z" fill="#D7DEE8"/>
<path d="M42 41H36C35.4477 41 35 40.3284 35 39.5C35 38.6716 35.4477 38 36 38H42C42.5523 38 43 38.6716 43 39.5C43 40.3284 42.5523 41 42 41Z" fill="#D7DEE8"/>
<path d="M12 46H6C5.44772 46 5 45.3284 5 44.5C5 43.6716 5.44772 43 6 43H12C12.5523 43 13 43.6716 13 44.5C13 45.3284 12.5523 46 12 46Z" fill="#D7DEE8"/>
<path d="M32 41L6 41C5.44772 41 5 40.3284 5 39.5C5 38.6716 5.44772 38 6 38L32 38C32.5523 38 33 38.6716 33 39.5C33 40.3284 32.5523 41 32 41Z" fill="#D7DEE8"/>
<path d="M42 46L16 46C15.4477 46 15 45.3284 15 44.5C15 43.6716 15.4477 43 16 43L42 43C42.5523 43 43 43.6716 43 44.5C43 45.3284 42.5523 46 42 46Z" fill="#D7DEE8"/>
<defs>
<linearGradient id="paint0_linear_1_181" x1="30" y1="10.5" x2="17" y2="26" gradientUnits="userSpaceOnUse">
<stop stop-color="#F2F2F2"/>
<stop offset="0.975962" stop-color="#BFC5CF"/>
</linearGradient>
<linearGradient id="paint1_linear_1_181" x1="24" y1="14" x2="24" y2="32" gradientUnits="userSpaceOnUse">
<stop stop-color="#F2F2F2"/>
<stop offset="1" stop-color="#DBDFE8"/>
</linearGradient>
</defs>
</svg>
