<svg width="48" height="48" viewBox="0 0 48 48" fill="none" xmlns="http://www.w3.org/2000/svg">
<path d="M35.7451 35.75H11.7451C11.7451 29.1226 17.1177 23.75 23.7451 23.75C30.3725 23.75 35.7451 29.1226 35.7451 35.75Z" fill="#FFE100"/>
<path d="M22.9951 20.75V13.75C22.9951 13.3358 23.3309 13 23.7451 13C24.1593 13 24.4951 13.3358 24.4951 13.75V20.75C24.4951 21.1642 24.1593 21.5 23.7451 21.5C23.3309 21.5 22.9951 21.1642 22.9951 20.75Z" fill="#FFE100"/>
<path d="M45.75 35.75L38.75 35.75C38.3358 35.75 38 35.4142 38 35C38 34.5858 38.3358 34.25 38.75 34.25L45.75 34.25C46.1642 34.25 46.5 34.5858 46.5 35C46.5 35.4142 46.1642 35.75 45.75 35.75Z" fill="#FFE100"/>
<path d="M8.75 35.75L1.75 35.75C1.33579 35.75 1 35.4142 1 35C1 34.5858 1.33579 34.25 1.75 34.25L8.75 34.25C9.16421 34.25 9.5 34.5858 9.5 35C9.5 35.4142 9.16421 35.75 8.75 35.75Z" fill="#FFE100"/>
<path d="M34.2144 23.7553L37.7499 20.2198C38.0428 19.9269 38.5177 19.9269 38.8106 20.2198C39.1035 20.5127 39.1035 20.9876 38.8106 21.2804L35.2751 24.816C34.9822 25.1089 34.5073 25.1089 34.2144 24.816C33.9215 24.5231 33.9215 24.0482 34.2144 23.7553Z" fill="#FFE100"/>
<path d="M11.7504 24.8159L8.2149 21.2803C7.92201 20.9874 7.92201 20.5126 8.2149 20.2197C8.50779 19.9268 8.98267 19.9268 9.27556 20.2197L12.8111 23.7552C13.104 24.0481 13.104 24.523 12.8111 24.8159C12.5182 25.1088 12.0433 25.1088 11.7504 24.8159Z" fill="#FFE100"/>
</svg>
