<svg width="64" height="48" viewBox="0 0 64 48" fill="none" xmlns="http://www.w3.org/2000/svg">
<g clip-path="url(#clip0_53_1514)">
<path d="M4.15169 7.14624C4.06883 4.88127 5.88254 3 8.14902 3H54.851C57.1175 3 58.9312 4.88128 58.8483 7.14624L57.641 40.1462C57.5623 42.297 55.7959 44 53.6437 44H9.35633C7.20411 44 5.4377 42.297 5.35901 40.1462L4.15169 7.14624Z" fill="#679FFF" fill-opacity="0.33"/>
<path d="M33.7021 47.412C32.602 47.7921 31.4037 47.7764 30.3139 47.3677L3.64352 37.3663C1.50074 36.5628 0.176999 34.407 0.429722 32.1325L2.21683 16.0486C2.3946 14.4486 3.33186 13.0321 4.73494 12.2428L24.6005 1.06846C25.8118 0.387108 27.252 0.240648 28.5757 0.664218L59.8682 10.6778C62.2388 11.4364 63.6904 13.8231 63.2737 16.277L59.9961 35.5787C59.6902 37.3799 58.4262 38.871 56.6992 39.4675L33.7021 47.412Z" fill="#679FFF" fill-opacity="0.33"/>
<path d="M29.8282 4.10242C31.2069 3.63111 32.7226 3.78464 33.9788 4.52286L52.812 15.5904C54.3402 16.4885 55.2787 18.1285 55.2787 19.9011V31.0002C55.2787 32.4944 54.6105 33.9102 53.4571 34.86L40.1153 45.8464C38.536 47.1469 36.3237 47.354 34.5303 46.3693L10.9658 33.4296C9.76827 32.772 8.89195 31.653 8.54061 30.3327L5.11726 17.468C4.44171 14.9293 5.84596 12.3008 8.33174 11.451L29.8282 4.10242Z" fill="#679FFF" fill-opacity="0.33"/>
<path d="M22.6235 2.50983C24.0536 0.999485 26.2694 0.532246 28.1876 1.33654L56.6285 13.2617C58.3039 13.9642 59.4665 15.5203 59.6651 17.3262L61.198 31.2649C61.4176 33.2621 60.4204 35.1968 58.6663 36.1766L39.6875 46.7781C38.3108 47.5471 36.6519 47.6216 35.2118 46.979L9.82343 35.6508C7.50895 34.6181 6.33322 32.017 7.08716 29.5973L11.7016 14.7878C11.9287 14.059 12.3197 13.3918 12.8446 12.8374L22.6235 2.50983Z" fill="#679FFF" fill-opacity="0.33"/>
<path d="M30.5252 5.90847C31.4865 5.65526 32.5015 5.69437 33.4405 6.02079L54.8766 13.4726C56.8872 14.1715 58.2348 16.0668 58.2348 18.1954V30.6153C58.2348 32.6994 56.9421 34.5649 54.9907 35.2968L33.397 43.396C32.4855 43.7379 31.4941 43.8063 30.5443 43.5927L4.09423 37.6454C1.31718 37.021 -0.379131 34.2076 0.364959 31.4601L4.74399 15.2914C5.2117 13.5645 6.56647 12.2191 8.29659 11.7634L30.5252 5.90847Z" fill="#679FFF" fill-opacity="0.33"/>
<path d="M26.9458 8.59045C28.0638 8.31208 29.2437 8.42838 30.2859 8.91969L49.0795 17.7795C50.6375 18.514 51.7078 19.9987 51.9121 21.709L53.104 31.6855C53.3438 33.6922 52.352 35.6458 50.5906 36.6365L39.1724 43.0593C38.0958 43.6649 36.833 43.8505 35.6276 43.5804L12.0824 38.303C9.95063 37.8252 8.37588 36.0186 8.19347 33.8415L6.85956 17.9211C6.65474 15.4766 8.25362 13.2445 10.6341 12.6518L26.9458 8.59045Z" fill="#679FFF" fill-opacity="0.33"/>
<path d="M25.8186 0.664734C26.9051 0.235188 28.1077 0.199682 29.2177 0.564379L56.9814 9.68676C59.8865 10.6413 61.2619 13.9566 59.8856 16.6872L53.3103 29.7336C52.9058 30.5363 52.2923 31.2152 51.5344 31.6986L34.7134 42.4291C33.0609 43.4833 30.9447 43.4746 29.3009 42.4069L13.321 32.0276C12.2643 31.3413 11.5057 30.2813 11.1969 29.0598L7.07674 12.7597C6.46091 10.3234 7.74904 7.80852 10.086 6.88461L25.8186 0.664734Z" fill="#679FFF" fill-opacity="0.33"/>
<circle cx="30.5" cy="23.5" r="12.5" fill="url(#paint0_linear_53_1514)"/>
<path fill-rule="evenodd" clip-rule="evenodd" d="M40.5 19C46.299 19 51 23.0294 51 28C51 32.9706 46.299 37 40.5 37C30.3379 37 31.6525 37 22 37C17.0294 37 13 33.5462 13 29.2857C13 25.0252 17.0294 21.5714 22 21.5714C25.6673 21.5714 28.8203 23.4523 30.2227 26.1493C31.2183 22.0666 35.4411 19 40.5 19Z" fill="url(#paint1_linear_53_1514)"/>
</g>
<defs>
<linearGradient id="paint0_linear_53_1514" x1="38" y1="15.5" x2="25" y2="31" gradientUnits="userSpaceOnUse">
<stop stop-color="#F2F2F2"/>
<stop offset="0.975962" stop-color="#BFC5CF"/>
</linearGradient>
<linearGradient id="paint1_linear_53_1514" x1="32" y1="19" x2="32" y2="37" gradientUnits="userSpaceOnUse">
<stop stop-color="#F2F2F2"/>
<stop offset="1" stop-color="#DBDFE8"/>
</linearGradient>
<clipPath id="clip0_53_1514">
<rect width="64" height="48" fill="white"/>
</clipPath>
</defs>
</svg>
