<svg width="48" height="48" viewBox="0 0 48 48" fill="none" xmlns="http://www.w3.org/2000/svg">
<circle cx="22.5" cy="18.5" r="12.5" fill="url(#paint0_linear_1_62)"/>
<path fill-rule="evenodd" clip-rule="evenodd" d="M32.5 14C38.299 14 43 18.0294 43 23C43 27.9706 38.299 32 32.5 32C22.3379 32 23.6525 32 14 32C9.02944 32 5 28.5462 5 24.2857C5 20.0252 9.02944 16.5714 14 16.5714C17.6673 16.5714 20.8203 18.4523 22.2227 21.1493C23.2183 17.0666 27.4411 14 32.5 14Z" fill="url(#paint1_linear_1_62)"/>
<path d="M8.58826 36.8714L10.8383 32.9743C11.1489 32.4362 11.837 32.2518 12.375 32.5625C12.9131 32.8732 13.0975 33.5612 12.7868 34.0993L10.5368 37.9964C10.2262 38.5345 9.53811 38.7188 9.00004 38.4082C8.46196 38.0975 8.2776 37.4095 8.58826 36.8714Z" fill="#679FFF"/>
<path d="M20.9632 36.8714L23.2132 32.9743C23.5239 32.4362 24.2119 32.2518 24.75 32.5625C25.2881 32.8732 25.4724 33.5612 25.1618 34.0993L22.9118 37.9964C22.6011 38.5345 21.9131 38.7188 21.375 38.4082C20.8369 38.0975 20.6525 37.4095 20.9632 36.8714Z" fill="#679FFF"/>
<path d="M32.9632 36.8714L35.2132 32.9743C35.5239 32.4362 36.2119 32.2518 36.75 32.5625C37.2881 32.8732 37.4724 33.5612 37.1618 34.0993L34.9118 37.9964C34.6011 38.5345 33.9131 38.7188 33.375 38.4082C32.8369 38.0975 32.6525 37.4095 32.9632 36.8714Z" fill="#679FFF"/>
<path d="M11.9632 42.0675L17.2132 32.9743C17.5239 32.4362 18.2119 32.2518 18.75 32.5625C19.2881 32.8732 19.4724 33.5612 19.1618 34.0993L13.9118 43.1925C13.6011 43.7306 12.9131 43.915 12.375 43.6043C11.8369 43.2937 11.6525 42.6056 11.9632 42.0675Z" fill="#679FFF"/>
<path d="M23.9632 42.0675L29.2132 32.9743C29.5239 32.4362 30.2119 32.2518 30.75 32.5625C31.2881 32.8732 31.4724 33.5612 31.1618 34.0993L25.9118 43.1925C25.6011 43.7306 24.9131 43.915 24.375 43.6043C23.8369 43.2937 23.6525 42.6056 23.9632 42.0675Z" fill="#679FFF"/>
<defs>
<linearGradient id="paint0_linear_1_62" x1="30" y1="10.5" x2="17" y2="26" gradientUnits="userSpaceOnUse">
<stop stop-color="#F2F2F2"/>
<stop offset="0.975962" stop-color="#BFC5CF"/>
</linearGradient>
<linearGradient id="paint1_linear_1_62" x1="24" y1="14" x2="24" y2="32" gradientUnits="userSpaceOnUse">
<stop stop-color="#F2F2F2"/>
<stop offset="1" stop-color="#DBDFE8"/>
</linearGradient>
</defs>
</svg>
