<svg width="48" height="48" viewBox="0 0 48 48" fill="none" xmlns="http://www.w3.org/2000/svg">
<path d="M23.0002 5C23.5524 5.00008 24.0002 5.44776 24.0002 6V11.8799L27.1867 7.41895C27.5077 6.9696 28.1318 6.86553 28.5812 7.18652C29.0305 7.50754 29.1346 8.13169 28.8136 8.58105L24.0002 15.3203V22.2666L30.0168 18.793L33.4465 11.2559C33.6752 10.7532 34.268 10.5311 34.7707 10.7598C35.2733 10.9885 35.4954 11.5813 35.2668 12.084L32.9953 17.0732L38.0881 14.1338C38.5663 13.8577 39.1781 14.0218 39.4543 14.5C39.7304 14.9783 39.5663 15.5901 39.0881 15.8662L33.9953 18.8057L39.4533 19.335C40.0028 19.3884 40.405 19.8772 40.3517 20.4268C40.2984 20.9764 39.8096 21.3785 39.2599 21.3252L31.0158 20.5254L25.0002 23.999L31.0168 27.4727L39.2599 26.6748C39.8096 26.6215 40.2984 27.0236 40.3517 27.5732C40.405 28.1228 40.0028 28.6116 39.4533 28.665L33.9953 29.1934L39.0881 32.1338C39.5663 32.4099 39.7304 33.0217 39.4543 33.5C39.1781 33.9782 38.5663 34.1423 38.0881 33.8662L32.9963 30.9258L35.2668 35.916C35.4954 36.4187 35.2733 37.0115 34.7707 37.2402C34.268 37.4689 33.6752 37.2468 33.4465 36.7441L30.0158 29.2061L24.0002 25.7324V32.6787L28.8136 39.4189C29.1346 39.8683 29.0306 40.4925 28.5812 40.8135C28.1318 41.1345 27.5077 41.0304 27.1867 40.5811L24.0002 36.1191V42C24.0002 42.5522 23.5524 42.9999 23.0002 43C22.4479 43 22.0002 42.5523 22.0002 42V36.1191L18.8136 40.5811C18.4927 41.0304 17.8685 41.1344 17.4191 40.8135C16.9697 40.4925 16.8657 39.8684 17.1867 39.4189L22.0002 32.6787V25.7314L15.9826 29.2051L12.5539 36.7441C12.3252 37.2468 11.7323 37.4689 11.2297 37.2402C10.7269 37.0115 10.5049 36.4187 10.7336 35.916L13.0031 30.9258L7.9113 33.8662C7.43305 34.1421 6.82117 33.9782 6.54509 33.5C6.26912 33.0218 6.43317 32.4099 6.9113 32.1338L12.0021 29.1934L6.54704 28.665C5.99736 28.6117 5.59531 28.1229 5.6486 27.5732C5.70199 27.0236 6.19075 26.6215 6.7404 26.6748L14.9816 27.4727L20.9992 23.999L14.9826 20.5254L6.7404 21.3252C6.19074 21.3785 5.70198 20.9764 5.6486 20.4268C5.59531 19.8771 5.99738 19.3883 6.54704 19.335L12.0041 18.8057L6.9113 15.8662C6.43317 15.5901 6.26913 14.9782 6.54509 14.5C6.82117 14.0218 7.43305 13.8579 7.9113 14.1338L13.0031 17.0732L10.7336 12.084C10.5049 11.5813 10.7269 10.9885 11.2297 10.7598C11.7323 10.5311 12.3252 10.7532 12.5539 11.2559L15.9826 18.793L22.0002 22.2676V15.3203L17.1867 8.58105C16.8657 8.13164 16.9697 7.50753 17.4191 7.18652C17.8685 6.86561 18.4927 6.96957 18.8136 7.41895L22.0002 11.8799V6C22.0002 5.44772 22.4479 5 23.0002 5Z" fill="url(#paint0_radial_1_86)"/>
<defs>
<radialGradient id="paint0_radial_1_86" cx="0" cy="0" r="1" gradientUnits="userSpaceOnUse" gradientTransform="translate(23 24) rotate(-30.3791) scale(16.8077 24.0111)">
<stop stop-color="#BBD4FF"/>
<stop offset="1" stop-color="#E5EEFF"/>
</radialGradient>
</defs>
</svg>
