<svg width="48" height="48" viewBox="0 0 48 48" fill="none" xmlns="http://www.w3.org/2000/svg">
<path d="M13.8391 33.2431V28.5124C13.8391 28.2324 14.066 28.0055 14.3459 28.0055C14.6259 28.0055 14.8528 28.2324 14.8528 28.5124V33.2431C14.8528 33.5231 14.6259 33.75 14.3459 33.75C14.066 33.75 13.8391 33.5231 13.8391 33.2431Z" fill="#FFF39C"/>
<path d="M6.5625 39.8191L8.8125 35.922C9.12316 35.3839 9.8112 35.1995 10.3493 35.5102C10.8874 35.8208 11.0717 36.5089 10.7611 37.047L8.51106 40.9441C8.2004 41.4821 7.51236 41.6665 6.97428 41.3558C6.4362 41.0452 6.25184 40.3571 6.5625 39.8191Z" fill="#679FFF"/>
<path d="M18.9375 39.8191L21.1875 35.922C21.4982 35.3839 22.1862 35.1995 22.7243 35.5102C23.2624 35.8208 23.4467 36.5089 23.1361 37.047L20.8861 40.9441C20.5754 41.4821 19.8874 41.6665 19.3493 41.3558C18.8112 41.0452 18.6268 40.3571 18.9375 39.8191Z" fill="#679FFF"/>
<path d="M30.9375 39.8191L33.1875 35.922C33.4982 35.3839 34.1862 35.1995 34.7243 35.5102C35.2624 35.8208 35.4467 36.5089 35.1361 37.047L32.8861 40.9441C32.5754 41.4821 31.8874 41.6665 31.3493 41.3558C30.8112 41.0452 30.6268 40.3571 30.9375 39.8191Z" fill="#679FFF"/>
<path d="M9.9375 45.0152L15.1875 35.922C15.4982 35.3839 16.1862 35.1995 16.7243 35.5102C17.2624 35.8208 17.4467 36.5089 17.1361 37.047L11.8861 46.1402C11.5754 46.6783 10.8874 46.8627 10.3493 46.552C9.8112 46.2413 9.62684 45.5533 9.9375 45.0152Z" fill="#679FFF"/>
<path d="M21.9375 45.0152L27.1875 35.922C27.4982 35.3839 28.1862 35.1995 28.7243 35.5102C29.2624 35.8208 29.4467 36.5089 29.1361 37.047L23.8861 46.1402C23.5754 46.6783 22.8874 46.8627 22.3493 46.552C21.8112 46.2413 21.6268 45.5533 21.9375 45.0152Z" fill="#679FFF"/>
<circle cx="30.85" cy="15.0979" r="7.75964" transform="rotate(-180 30.85 15.0979)" fill="url(#paint0_linear_1_70)"/>
<path d="M31.4299 1.63889L31.4299 5.9576C31.4299 6.21315 31.2228 6.42031 30.9672 6.42031C30.7117 6.42031 30.5045 6.21315 30.5045 5.9576L30.5045 1.63888C30.5045 1.38333 30.7117 1.17617 30.9672 1.17617C31.2228 1.17617 31.4299 1.38333 31.4299 1.63889Z" fill="#FFF39C"/>
<path d="M31.4299 24.4664L31.4299 28.7851C31.4299 29.0406 31.2228 29.2478 30.9672 29.2478C30.7117 29.2478 30.5045 29.0406 30.5045 28.7851L30.5045 24.4664C30.5045 24.2108 30.7117 24.0036 30.9672 24.0036C31.2228 24.0036 31.4299 24.2108 31.4299 24.4664Z" fill="url(#paint1_linear_1_70)"/>
<path d="M40.2185 14.7462L44.5372 14.7462C44.7928 14.7462 44.9999 14.9533 44.9999 15.2089C44.9999 15.4644 44.7928 15.6716 44.5372 15.6716L40.2185 15.6716C39.963 15.6716 39.7558 15.4644 39.7558 15.2089C39.7558 14.9533 39.963 14.7462 40.2185 14.7462Z" fill="url(#paint2_linear_1_70)"/>
<path d="M40.5488 6.57135L38.3675 8.75263C38.1868 8.93333 37.8939 8.93333 37.7132 8.75263C37.5324 8.57192 37.5324 8.27895 37.7132 8.09824L39.8944 5.91697C40.0751 5.73626 40.3681 5.73626 40.5488 5.91697C40.7295 6.09767 40.7295 6.39065 40.5488 6.57135Z" fill="#FFF39C"/>
<path d="M24.5079 22.6123L22.3266 24.7935C22.1459 24.9743 21.853 24.9743 21.6723 24.7935C21.4916 24.6128 21.4916 24.3199 21.6723 24.1392L23.8535 21.9579C24.0342 21.7772 24.3272 21.7772 24.5079 21.9579C24.6886 22.1386 24.6886 22.4316 24.5079 22.6123Z" fill="url(#paint3_linear_1_70)"/>
<path d="M22.3266 5.91696L24.5079 8.09824C24.6886 8.27894 24.6886 8.57192 24.5079 8.75262C24.3272 8.93332 24.0342 8.93332 23.8535 8.75262L21.6722 6.57134C21.4915 6.39064 21.4915 6.09766 21.6722 5.91696C21.8529 5.73626 22.1459 5.73626 22.3266 5.91696Z" fill="#FFF39C"/>
<path d="M38.3676 21.9579L40.5488 24.1392C40.7295 24.3199 40.7295 24.6128 40.5488 24.7936C40.3681 24.9743 40.0752 24.9743 39.8945 24.7936L37.7132 22.6123C37.5325 22.4316 37.5325 22.1386 37.7132 21.9579C37.8939 21.7772 38.1869 21.7772 38.3676 21.9579Z" fill="url(#paint4_linear_1_70)"/>
<g filter="url(#filter0_f_1_70)">
<path d="M24.0838 13.0438C25.6053 13.6524 28.9222 15.7825 30.0176 19.4341C31.0827 19.282 33.6692 19.4341 35.495 21.2599" stroke="black"/>
</g>
<circle cx="20.4322" cy="21.2599" r="10.0419" fill="url(#paint5_linear_1_70)"/>
<path fill-rule="evenodd" clip-rule="evenodd" d="M29.1047 18.5212C34.3986 18.5212 38.6901 22.1997 38.6901 26.7373C38.6901 31.2749 34.3986 34.9534 29.1047 34.9534C19.8277 34.9534 21.0279 34.9534 12.2161 34.9534C7.67847 34.9534 4 31.8004 4 27.911C4 24.0217 7.67847 20.8687 12.2161 20.8687C15.5639 20.8687 18.4423 22.5857 19.7225 25.0478C20.6315 21.3207 24.4865 18.5212 29.1047 18.5212Z" fill="url(#paint6_linear_1_70)"/>
<defs>
<filter id="filter0_f_1_70" x="20.8981" y="9.57961" width="17.9504" height="15.0339" filterUnits="userSpaceOnUse" color-interpolation-filters="sRGB">
<feFlood flood-opacity="0" result="BackgroundImageFix"/>
<feBlend mode="normal" in="SourceGraphic" in2="BackgroundImageFix" result="shape"/>
<feGaussianBlur stdDeviation="1.5" result="effect1_foregroundBlur_1_70"/>
</filter>
<linearGradient id="paint0_linear_1_70" x1="30.85" y1="3.78173" x2="30.85" y2="26.414" gradientUnits="userSpaceOnUse">
<stop stop-color="#FFD000"/>
<stop offset="1" stop-color="#E2C703"/>
</linearGradient>
<linearGradient id="paint1_linear_1_70" x1="30.9672" y1="29.2478" x2="30.9672" y2="24.0036" gradientUnits="userSpaceOnUse">
<stop stop-color="#FFF39C"/>
<stop offset="1" stop-color="#EED100"/>
</linearGradient>
<linearGradient id="paint2_linear_1_70" x1="44.9999" y1="15.2089" x2="39.7558" y2="15.2089" gradientUnits="userSpaceOnUse">
<stop stop-color="#FFF39C"/>
<stop offset="1" stop-color="#EED100"/>
</linearGradient>
<linearGradient id="paint3_linear_1_70" x1="21.6723" y1="24.7935" x2="24.5079" y2="21.9579" gradientUnits="userSpaceOnUse">
<stop stop-color="#FFF39C"/>
<stop offset="1" stop-color="#EED100"/>
</linearGradient>
<linearGradient id="paint4_linear_1_70" x1="40.5488" y1="24.7936" x2="37.7132" y2="21.9579" gradientUnits="userSpaceOnUse">
<stop stop-color="#FFF39C"/>
<stop offset="1" stop-color="#EED100"/>
</linearGradient>
<linearGradient id="paint5_linear_1_70" x1="26.4573" y1="14.8331" x2="16.0138" y2="27.2851" gradientUnits="userSpaceOnUse">
<stop stop-color="#CCD6E2"/>
<stop offset="0.322115" stop-color="white"/>
</linearGradient>
<linearGradient id="paint6_linear_1_70" x1="23.1709" y1="30.3889" x2="19.9757" y2="23.0857" gradientUnits="userSpaceOnUse">
<stop stop-color="#F2F2F2"/>
<stop offset="1" stop-color="#DBDFE8"/>
</linearGradient>
</defs>
</svg>
