<svg width="48" height="48" viewBox="0 0 48 48" fill="none" xmlns="http://www.w3.org/2000/svg">
<circle cx="22.5" cy="16.5" r="12.5" fill="url(#paint0_linear_1_167)"/>
<path fill-rule="evenodd" clip-rule="evenodd" d="M32.5 12C38.299 12 43 16.0294 43 21C43 25.9706 38.299 30 32.5 30C22.3379 30 23.6525 30 14 30C9.02944 30 5 26.5462 5 22.2857C5 18.0252 9.02944 14.5714 14 14.5714C17.6673 14.5714 20.8203 16.4523 22.2227 19.1493C23.2183 15.0666 27.4411 12 32.5 12Z" fill="url(#paint1_linear_1_167)"/>
<path d="M6.85772 29C7.01228 29 7.13761 29.1253 7.13761 29.2799V30.9256L8.02946 29.677C8.11931 29.5513 8.29399 29.5221 8.41976 29.612C8.54551 29.7018 8.57463 29.8765 8.48481 30.0023L7.13761 31.8885V33.8326L8.82155 32.8604L9.78146 30.7509C9.84547 30.6102 10.0114 30.548 10.1521 30.6121C10.2928 30.6761 10.3549 30.842 10.2909 30.9827L9.65518 32.3791L11.0806 31.5564C11.2144 31.4791 11.3856 31.525 11.4629 31.6589C11.5402 31.7927 11.4943 31.964 11.3604 32.0413L9.93506 32.864L11.4627 33.0121C11.6165 33.0271 11.729 33.1639 11.7141 33.3177C11.6992 33.4715 11.5624 33.5841 11.4085 33.5691L9.10116 33.3453L7.41749 34.3175L9.10143 35.2897L11.4085 35.0664C11.5624 35.0515 11.6992 35.164 11.7141 35.3179C11.729 35.4717 11.6165 35.6085 11.4627 35.6234L9.93506 35.7713L11.3604 36.5943C11.4943 36.6716 11.5402 36.8428 11.4629 36.9767C11.3856 37.1105 11.2144 37.1564 11.0806 37.0791L9.65546 36.2562L10.2909 37.6529C10.3549 37.7935 10.2927 37.9595 10.1521 38.0235C10.0114 38.0875 9.84547 38.0253 9.78146 37.8846L8.82127 35.7749L7.13761 34.8026V36.7468L8.48481 38.6333C8.57464 38.759 8.54552 38.9337 8.41976 39.0236C8.29399 39.1134 8.11931 39.0843 8.02946 38.9585L7.13761 37.7097V39.3557C7.13761 39.5102 7.01228 39.6355 6.85772 39.6355C6.70315 39.6355 6.57784 39.5102 6.57784 39.3557V37.7097L5.68599 38.9585C5.59615 39.0843 5.42147 39.1134 5.29569 39.0236C5.1699 38.9337 5.14079 38.759 5.23063 38.6333L6.57784 36.7468V34.8024L4.89363 35.7746L3.93399 37.8846C3.86999 38.0253 3.70406 38.0875 3.56337 38.0235C3.42267 37.9595 3.36051 37.7935 3.42452 37.6529L4.05972 36.2562L2.63462 37.0791C2.50076 37.1564 2.32951 37.1105 2.25224 36.9767C2.175 36.8428 2.22092 36.6716 2.35473 36.5943L3.77956 35.7713L2.25278 35.6234C2.09894 35.6085 1.98641 35.4717 2.00133 35.3179C2.01627 35.164 2.15307 35.0515 2.3069 35.0664L4.61347 35.2897L6.29769 34.3175L4.61375 33.3453L2.3069 33.5691C2.15306 33.5841 2.01627 33.4715 2.00133 33.3177C1.98641 33.1638 2.09894 33.027 2.25278 33.0121L3.78011 32.864L2.35473 32.0413C2.22091 31.964 2.175 31.7927 2.25224 31.6589C2.32951 31.525 2.50076 31.4792 2.63462 31.5564L4.05972 32.3791L3.42452 30.9827C3.36051 30.842 3.42267 30.6761 3.56337 30.6121C3.70406 30.5481 3.86999 30.6102 3.93399 30.7509L4.89363 32.8604L6.57784 33.8329V31.8885L5.23063 30.0023C5.14079 29.8765 5.1699 29.7018 5.29569 29.612C5.42147 29.5222 5.59615 29.5512 5.68599 29.677L6.57784 30.9256V29.2799C6.57784 29.1253 6.70315 29 6.85772 29Z" fill="url(#paint2_radial_1_167)"/>
<path d="M20 31C20.0955 31 20.1728 31.0707 20.1728 31.1579V32.0863L20.7236 31.3819C20.7791 31.311 20.887 31.2946 20.9647 31.3452C21.0423 31.3959 21.0603 31.4945 21.0048 31.5654L20.1728 32.6295V33.7263L21.2128 33.1778L21.8056 31.9878C21.8451 31.9084 21.9476 31.8733 22.0345 31.9094C22.1214 31.9456 22.1598 32.0392 22.1203 32.1185L21.7276 32.9063L22.6079 32.4422C22.6906 32.3986 22.7963 32.4245 22.8441 32.5C22.8918 32.5755 22.8634 32.6721 22.7808 32.7157L21.9005 33.1798L22.8439 33.2634C22.9389 33.2719 23.0084 33.349 22.9992 33.4358C22.99 33.5226 22.9055 33.5861 22.8105 33.5777L21.3855 33.4514L20.3457 33.9998L21.3857 34.5483L22.8105 34.4223C22.9055 34.4139 22.99 34.4774 22.9992 34.5642C23.0084 34.651 22.9389 34.7281 22.8439 34.7366L21.9005 34.82L22.7808 35.2843C22.8634 35.3279 22.8918 35.4245 22.8441 35.5C22.7963 35.5755 22.6906 35.6014 22.6079 35.5578L21.7278 35.0935L22.1203 35.8815C22.1598 35.9608 22.1214 36.0544 22.0345 36.0906C21.9476 36.1267 21.8452 36.0916 21.8056 36.0122L21.2126 34.822L20.1728 34.2735V35.3703L21.0048 36.4346C21.0603 36.5055 21.0423 36.6041 20.9647 36.6548C20.887 36.7054 20.7791 36.689 20.7236 36.6181L20.1728 35.9135V36.8421C20.1728 36.9293 20.0955 37 20 37C19.9045 37 19.8272 36.9293 19.8272 36.8421V35.9135L19.2764 36.6181C19.2209 36.689 19.113 36.7054 19.0353 36.6548C18.9576 36.6041 18.9397 36.5055 18.9952 36.4346L19.8272 35.3703V34.2734L18.787 34.8219L18.1944 36.0122C18.1549 36.0916 18.0524 36.1267 17.9655 36.0906C17.8786 36.0545 17.8402 35.9609 17.8797 35.8815L18.272 35.0935L17.3919 35.5578C17.3093 35.6014 17.2035 35.5755 17.1558 35.5C17.1081 35.4245 17.1364 35.3279 17.2191 35.2843L18.099 34.82L17.1561 34.7366C17.0611 34.7282 16.9916 34.651 17.0008 34.5642C17.01 34.4774 17.0945 34.4139 17.1895 34.4223L18.614 34.5483L19.6541 33.9998L18.6142 33.4514L17.1895 33.5777C17.0945 33.5861 17.01 33.5226 17.0008 33.4358C16.9916 33.349 17.0611 33.2718 17.1561 33.2634L18.0993 33.1798L17.2191 32.7157C17.1364 32.6721 17.1081 32.5755 17.1558 32.5C17.2035 32.4245 17.3093 32.3986 17.3919 32.4422L18.272 32.9063L17.8797 32.1185C17.8402 32.0391 17.8786 31.9455 17.9655 31.9094C18.0524 31.8733 18.1549 31.9084 18.1944 31.9878L18.787 33.1778L19.8272 33.7265V32.6295L18.9952 31.5654C18.9397 31.4945 18.9576 31.3959 19.0353 31.3452C19.113 31.2946 19.2209 31.311 19.2764 31.3819L19.8272 32.0863V31.1579C19.8272 31.0707 19.9045 31 20 31Z" fill="url(#paint3_radial_1_167)"/>
<path d="M13.9852 38C14.112 38 14.2148 38.1028 14.2148 38.2296V39.5797L14.9465 38.5554C15.0202 38.4522 15.1635 38.4283 15.2667 38.5021C15.3698 38.5758 15.3937 38.7191 15.32 38.8223L14.2148 40.3697V41.9646L15.5963 41.167L16.3838 39.4364C16.4363 39.321 16.5724 39.27 16.6878 39.3225C16.8032 39.375 16.8543 39.5111 16.8018 39.6266L16.2802 40.7722L17.4496 40.0972C17.5594 40.0338 17.6998 40.0715 17.7632 40.1813C17.8267 40.2911 17.789 40.4316 17.6792 40.495L16.5098 41.1699L17.763 41.2915C17.8892 41.3037 17.9815 41.416 17.9693 41.5422C17.9571 41.6684 17.8448 41.7607 17.7186 41.7484L15.8257 41.5648L14.4444 42.3624L15.8259 43.16L17.7186 42.9768C17.8448 42.9645 17.9571 43.0569 17.9693 43.1831C17.9815 43.3093 17.8892 43.4215 17.763 43.4338L16.5098 43.5551L17.6792 44.2302C17.789 44.2936 17.8267 44.4341 17.7632 44.5439C17.6998 44.6537 17.5594 44.6914 17.4496 44.628L16.2804 43.9529L16.8018 45.0987C16.8543 45.2141 16.8032 45.3502 16.6878 45.4027C16.5724 45.4552 16.4363 45.4042 16.3838 45.2888L15.5961 43.558L14.2148 42.7604V44.3553L15.32 45.903C15.3937 46.0062 15.3698 46.1495 15.2667 46.2232C15.1635 46.2969 15.0202 46.273 14.9465 46.1698L14.2148 45.1453V46.4956C14.2148 46.6224 14.112 46.7252 13.9852 46.7252C13.8584 46.7252 13.7556 46.6224 13.7556 46.4956V45.1453L13.0239 46.1698C12.9502 46.273 12.8069 46.2969 12.7037 46.2232C12.6005 46.1495 12.5767 46.0062 12.6504 45.903L13.7556 44.3553V42.7602L12.3739 43.5578L11.5866 45.2888C11.5341 45.4042 11.398 45.4552 11.2826 45.4027C11.1671 45.3502 11.1161 45.2141 11.1687 45.0987L11.6898 43.9529L10.5206 44.628C10.4108 44.6914 10.2703 44.6537 10.2069 44.5439C10.1436 44.4341 10.1812 44.2936 10.291 44.2302L11.4599 43.5551L10.2074 43.4338C10.0812 43.4215 9.98885 43.3093 10.0011 43.1831C10.0133 43.0569 10.1256 42.9645 10.2518 42.9768L12.1441 43.16L13.5258 42.3624L12.1443 41.5648L10.2518 41.7484C10.1256 41.7607 10.0133 41.6684 10.0011 41.5422C9.98885 41.4159 10.0812 41.3037 10.2074 41.2915L11.4604 41.1699L10.291 40.495C10.1812 40.4316 10.1436 40.2911 10.2069 40.1813C10.2703 40.0715 10.4108 40.0339 10.5206 40.0972L11.6898 40.7722L11.1687 39.6266C11.1161 39.5111 11.1671 39.375 11.2826 39.3225C11.398 39.27 11.5341 39.321 11.5866 39.4364L12.3739 41.167L13.7556 41.9648V40.3697L12.6504 38.8223C12.5767 38.7191 12.6005 38.5758 12.7037 38.5021C12.8069 38.4284 12.9502 38.4522 13.0239 38.5554L13.7556 39.5797V38.2296C13.7556 38.1028 13.8584 38 13.9852 38Z" fill="url(#paint4_radial_1_167)"/>
<path d="M39 31C39.0955 31 39.1728 31.0707 39.1728 31.1579V32.0863L39.7236 31.3819C39.7791 31.311 39.887 31.2946 39.9647 31.3452C40.0423 31.3959 40.0603 31.4945 40.0048 31.5654L39.1728 32.6295V33.7263L40.2128 33.1778L40.8056 31.9878C40.8451 31.9084 40.9476 31.8733 41.0345 31.9094C41.1214 31.9456 41.1598 32.0392 41.1203 32.1185L40.7276 32.9063L41.6079 32.4422C41.6906 32.3986 41.7963 32.4245 41.8441 32.5C41.8918 32.5755 41.8634 32.6721 41.7808 32.7157L40.9005 33.1798L41.8439 33.2634C41.9389 33.2719 42.0084 33.349 41.9992 33.4358C41.99 33.5226 41.9055 33.5861 41.8105 33.5777L40.3855 33.4514L39.3457 33.9998L40.3857 34.5483L41.8105 34.4223C41.9055 34.4139 41.99 34.4774 41.9992 34.5642C42.0084 34.651 41.9389 34.7281 41.8439 34.7366L40.9005 34.82L41.7808 35.2843C41.8634 35.3279 41.8918 35.4245 41.8441 35.5C41.7963 35.5755 41.6906 35.6014 41.6079 35.5578L40.7278 35.0935L41.1203 35.8815C41.1598 35.9608 41.1214 36.0544 41.0345 36.0906C40.9476 36.1267 40.8452 36.0916 40.8056 36.0122L40.2126 34.822L39.1728 34.2735V35.3703L40.0048 36.4346C40.0603 36.5055 40.0423 36.6041 39.9647 36.6548C39.887 36.7054 39.7791 36.689 39.7236 36.6181L39.1728 35.9135V36.8421C39.1728 36.9293 39.0955 37 39 37C38.9045 37 38.8272 36.9293 38.8272 36.8421V35.9135L38.2764 36.6181C38.2209 36.689 38.113 36.7054 38.0353 36.6548C37.9576 36.6041 37.9397 36.5055 37.9952 36.4346L38.8272 35.3703V34.2734L37.787 34.8219L37.1944 36.0122C37.1549 36.0916 37.0524 36.1267 36.9655 36.0906C36.8786 36.0545 36.8402 35.9609 36.8797 35.8815L37.272 35.0935L36.3919 35.5578C36.3093 35.6014 36.2035 35.5755 36.1558 35.5C36.1081 35.4245 36.1364 35.3279 36.2191 35.2843L37.099 34.82L36.1561 34.7366C36.0611 34.7282 35.9916 34.651 36.0008 34.5642C36.01 34.4774 36.0945 34.4139 36.1895 34.4223L37.614 34.5483L38.6541 33.9998L37.6142 33.4514L36.1895 33.5777C36.0945 33.5861 36.01 33.5226 36.0008 33.4358C35.9916 33.349 36.0611 33.2718 36.1561 33.2634L37.0993 33.1798L36.2191 32.7157C36.1364 32.6721 36.1081 32.5755 36.1558 32.5C36.2035 32.4245 36.3093 32.3986 36.3919 32.4422L37.272 32.9063L36.8797 32.1185C36.8402 32.0391 36.8786 31.9455 36.9655 31.9094C37.0524 31.8733 37.1549 31.9084 37.1944 31.9878L37.787 33.1778L38.8272 33.7265V32.6295L37.9952 31.5654C37.9397 31.4945 37.9576 31.3959 38.0353 31.3452C38.113 31.2946 38.2209 31.311 38.2764 31.3819L38.8272 32.0863V31.1579C38.8272 31.0707 38.9045 31 39 31Z" fill="url(#paint5_radial_1_167)"/>
<path d="M30.2351 35C30.4017 35 30.5368 35.1351 30.5368 35.3016V37.0752L31.4979 35.7296C31.5947 35.5941 31.783 35.5627 31.9185 35.6595C32.0541 35.7563 32.0854 35.9446 31.9886 36.0801L30.5368 38.1129V40.2081L32.3515 39.1603L33.386 36.8869C33.455 36.7353 33.6338 36.6683 33.7854 36.7373C33.937 36.8063 34.0041 36.9851 33.9351 37.1367L33.2499 38.6416L34.7861 37.755C34.9303 37.6717 35.1148 37.7212 35.1981 37.8655C35.2814 38.0097 35.232 38.1943 35.0877 38.2775L33.5516 39.1642L35.1979 39.3238C35.3636 39.3399 35.4849 39.4874 35.4688 39.6531C35.4527 39.8189 35.3053 39.9402 35.1395 39.9241L32.6529 39.6829L30.8384 40.7306L32.6532 41.7784L35.1395 41.5377C35.3053 41.5216 35.4527 41.6429 35.4688 41.8087C35.4849 41.9745 35.3636 42.1219 35.1979 42.138L33.5516 42.2974L35.0877 43.1843C35.232 43.2676 35.2814 43.4521 35.1981 43.5964C35.1148 43.7406 34.9303 43.7901 34.7861 43.7068L33.2502 42.8199L33.9351 44.3251C34.004 44.4767 33.937 44.6555 33.7854 44.7245C33.6338 44.7935 33.455 44.7265 33.386 44.5749L32.3512 42.3012L30.5368 41.2535V43.3487L31.9886 45.3817C32.0854 45.5172 32.0541 45.7055 31.9185 45.8023C31.783 45.8991 31.5947 45.8678 31.4979 45.7322L30.5368 44.3864V46.1602C30.5368 46.3268 30.4017 46.4618 30.2351 46.4618C30.0686 46.4618 29.9335 46.3268 29.9335 46.1602V44.3864L28.9724 45.7322C28.8755 45.8678 28.6873 45.8991 28.5517 45.8023C28.4162 45.7055 28.3848 45.5173 28.4816 45.3817L29.9335 43.3487V41.2532L28.1184 42.3009L27.0842 44.5749C27.0153 44.7265 26.8365 44.7935 26.6848 44.7245C26.5332 44.6556 26.4662 44.4767 26.5352 44.3251L27.2197 42.8199L25.6839 43.7068C25.5397 43.7901 25.3551 43.7406 25.2718 43.5964C25.1886 43.4521 25.2381 43.2676 25.3823 43.1843L26.9178 42.2974L25.2724 42.138C25.1066 42.1219 24.9854 41.9745 25.0014 41.8087C25.0175 41.6429 25.165 41.5216 25.3307 41.5377L27.8165 41.7784L29.6316 40.7306L27.8168 39.6829L25.3307 39.9241C25.165 39.9402 25.0175 39.8189 25.0014 39.6531C24.9854 39.4873 25.1066 39.3399 25.2724 39.3238L26.9184 39.1642L25.3823 38.2775C25.2381 38.1943 25.1886 38.0097 25.2718 37.8655C25.3551 37.7212 25.5397 37.6718 25.6839 37.755L27.2197 38.6416L26.5352 37.1367C26.4662 36.9851 26.5332 36.8063 26.6848 36.7373C26.8365 36.6683 27.0153 36.7353 27.0842 36.8869L28.1184 39.1603L29.9335 40.2084V38.1129L28.4816 36.0801C28.3848 35.9446 28.4162 35.7563 28.5517 35.6595C28.6873 35.5627 28.8755 35.5941 28.9724 35.7296L29.9335 37.0752V35.3016C29.9335 35.135 30.0686 35 30.2351 35Z" fill="url(#paint6_radial_1_167)"/>
<defs>
<linearGradient id="paint0_linear_1_167" x1="30" y1="8.5" x2="17" y2="24" gradientUnits="userSpaceOnUse">
<stop stop-color="#F2F2F2"/>
<stop offset="0.975962" stop-color="#BFC5CF"/>
</linearGradient>
<linearGradient id="paint1_linear_1_167" x1="24" y1="12" x2="24" y2="30" gradientUnits="userSpaceOnUse">
<stop stop-color="#F2F2F2"/>
<stop offset="1" stop-color="#DBDFE8"/>
</linearGradient>
<radialGradient id="paint2_radial_1_167" cx="0" cy="0" r="1" gradientUnits="userSpaceOnUse" gradientTransform="translate(6.85768 34.3178) rotate(-30.3791) scale(4.70419 6.72027)">
<stop stop-color="#BBD4FF"/>
<stop offset="1" stop-color="#E5EEFF"/>
</radialGradient>
<radialGradient id="paint3_radial_1_167" cx="0" cy="0" r="1" gradientTransform="matrix(2.50629 -1.34211 2.09887 3.27068 20 34)" gradientUnits="userSpaceOnUse">
<stop stop-color="#BBD4FF"/>
<stop offset="1" stop-color="#E5EEFF"/>
</radialGradient>
<radialGradient id="paint4_radial_1_167" cx="0" cy="0" r="1" gradientUnits="userSpaceOnUse" gradientTransform="translate(13.9852 42.3626) rotate(-30.3791) scale(3.85924 5.51321)">
<stop stop-color="#BBD4FF"/>
<stop offset="1" stop-color="#E5EEFF"/>
</radialGradient>
<radialGradient id="paint5_radial_1_167" cx="0" cy="0" r="1" gradientTransform="matrix(2.50629 -1.34211 2.09887 3.27068 39 34)" gradientUnits="userSpaceOnUse">
<stop stop-color="#BBD4FF"/>
<stop offset="1" stop-color="#E5EEFF"/>
</radialGradient>
<radialGradient id="paint6_radial_1_167" cx="0" cy="0" r="1" gradientUnits="userSpaceOnUse" gradientTransform="translate(30.2351 40.7309) rotate(-30.3791) scale(5.06967 7.24239)">
<stop stop-color="#BBD4FF"/>
<stop offset="1" stop-color="#E5EEFF"/>
</radialGradient>
</defs>
</svg>
